<svg xmlns="http://www.w3.org/2000/svg" width="84.995" height="40.935" viewBox="0 0 84.995 40.935">
  <g id="Yum" transform="translate(-4775.027 -3348.369)">
    <path id="Path_121" data-name="Path 121" d="M4784.865,3364.327a7.594,7.594,0,0,1-.9.158,9.3,9.3,0,0,1-1.187.079,3.279,3.279,0,0,1-1.82-.409,1.974,1.974,0,0,1-.606-1.728v-3.56q-.66-.976-1.425-2.163t-1.5-2.427q-.739-1.239-1.372-2.439a22.434,22.434,0,0,1-1.028-2.2,3.6,3.6,0,0,1,.936-.87,2.582,2.582,0,0,1,1.464-.4,3.018,3.018,0,0,1,1.675.422,3.97,3.97,0,0,1,1.226,1.583l2.189,4.4h.159q.369-.816.646-1.49t.541-1.345q.263-.672.554-1.4t.659-1.675a4.662,4.662,0,0,1,1.055-.369,5,5,0,0,1,1.108-.132,2.532,2.532,0,0,1,1.569.488,1.72,1.72,0,0,1,.646,1.464,2.82,2.82,0,0,1-.131.765,8.71,8.71,0,0,1-.607,1.358q-.475.91-1.385,2.466t-2.466,4.062Z" fill="#fff"/>
    <path id="Path_122" data-name="Path 122" d="M4789.692,3351.8a5.927,5.927,0,0,1,.831-.158,8.443,8.443,0,0,1,1.173-.08,6.173,6.173,0,0,1,1.042.08,1.768,1.768,0,0,1,.778.316,1.523,1.523,0,0,1,.488.647,2.793,2.793,0,0,1,.172,1.068v5.67a1.96,1.96,0,0,0,.527,1.544,2.26,2.26,0,0,0,1.53.461,3.788,3.788,0,0,0,.989-.106,3.3,3.3,0,0,0,.593-.211V3351.8a5.987,5.987,0,0,1,.831-.158,8.447,8.447,0,0,1,1.174-.08,6.182,6.182,0,0,1,1.042.08,1.773,1.773,0,0,1,.778.316,1.531,1.531,0,0,1,.488.647,2.8,2.8,0,0,1,.171,1.068v8.018a2.154,2.154,0,0,1-1.107,1.978,7.285,7.285,0,0,1-2.2.884,12.063,12.063,0,0,1-2.783.3,10.274,10.274,0,0,1-2.624-.317,5.851,5.851,0,0,1-2.07-.975,4.353,4.353,0,0,1-1.345-1.7,6.039,6.039,0,0,1-.475-2.519Z" fill="#fff"/>
    <path id="Path_123" data-name="Path 123" d="M4810.132,3351.218a7.574,7.574,0,0,1,2.124.3,5.227,5.227,0,0,1,1.806.91,7.813,7.813,0,0,1,1.781-.871,7.991,7.991,0,0,1,4.352-.078,5.008,5.008,0,0,1,1.714.83,4.021,4.021,0,0,1,1.2,1.5,5.25,5.25,0,0,1,.449,2.282v8.308a6.113,6.113,0,0,1-.831.159,8.623,8.623,0,0,1-1.174.079,6.273,6.273,0,0,1-1.042-.079,1.78,1.78,0,0,1-.778-.317,1.514,1.514,0,0,1-.488-.646,2.781,2.781,0,0,1-.171-1.068v-6.3a1.376,1.376,0,0,0-.449-1.147,1.893,1.893,0,0,0-1.213-.356,2.11,2.11,0,0,0-.791.171,2.275,2.275,0,0,0-.633.356.839.839,0,0,1,.026.2v8.954a7.387,7.387,0,0,1-.857.159,8.423,8.423,0,0,1-1.147.079,6.282,6.282,0,0,1-1.042-.079,1.78,1.78,0,0,1-.778-.317,1.514,1.514,0,0,1-.488-.646,2.78,2.78,0,0,1-.171-1.068v-6.3a1.323,1.323,0,0,0-.489-1.147,1.93,1.93,0,0,0-1.173-.356,2.085,2.085,0,0,0-.818.145,6.057,6.057,0,0,0-.58.277v9.257a6.113,6.113,0,0,1-.831.159,8.614,8.614,0,0,1-1.174.079,6.29,6.29,0,0,1-1.042-.079,1.776,1.776,0,0,1-.777-.317,1.516,1.516,0,0,1-.489-.646,2.8,2.8,0,0,1-.171-1.068v-7.966a1.908,1.908,0,0,1,.3-1.134,3.42,3.42,0,0,1,.831-.791,7.573,7.573,0,0,1,2.229-1.028A9.7,9.7,0,0,1,4810.132,3351.218Z" fill="#fff"/>
    <path id="Path_124" data-name="Path 124" d="M4784.628,3376.064a3.909,3.909,0,0,0-3.113,1.239,5.17,5.17,0,0,0-1.081,3.508,4.874,4.874,0,0,0,1.2,3.535,4.288,4.288,0,0,0,3.231,1.239,5.094,5.094,0,0,0,1.833-.29,12.594,12.594,0,0,0,1.438-.659,2.625,2.625,0,0,1,.7.883,2.712,2.712,0,0,1,.251,1.2,2.159,2.159,0,0,1-1.2,1.832,7.019,7.019,0,0,1-3.653.752,10.776,10.776,0,0,1-3.323-.5,7.4,7.4,0,0,1-2.717-1.543,7.264,7.264,0,0,1-1.833-2.638,9.79,9.79,0,0,1-.673-3.811,9.458,9.458,0,0,1,.646-3.626,7.7,7.7,0,0,1,1.768-2.651,7.449,7.449,0,0,1,2.624-1.636,9.239,9.239,0,0,1,3.217-.553,7.41,7.41,0,0,1,3.759.791,2.33,2.33,0,0,1,1.332,2.031,2.048,2.048,0,0,1-.343,1.187,2.825,2.825,0,0,1-.791.791,8.586,8.586,0,0,0-1.464-.765A4.773,4.773,0,0,0,4784.628,3376.064Z" fill="#fff"/>
    <path id="Path_125" data-name="Path 125" d="M4807.853,3380.811a9.566,9.566,0,0,1,.646-3.64,7.344,7.344,0,0,1,4.4-4.273,10.026,10.026,0,0,1,6.567,0,7.664,7.664,0,0,1,2.651,1.623,7.447,7.447,0,0,1,1.78,2.65,9.565,9.565,0,0,1,.647,3.64,9.868,9.868,0,0,1-.633,3.653,7.362,7.362,0,0,1-1.754,2.664,7.5,7.5,0,0,1-2.651,1.622,9.706,9.706,0,0,1-3.324.554,9.491,9.491,0,0,1-3.323-.567,7.418,7.418,0,0,1-2.638-1.648,7.63,7.63,0,0,1-1.74-2.664A9.674,9.674,0,0,1,4807.853,3380.811Zm4.747,0a5.557,5.557,0,0,0,.976,3.587,3.495,3.495,0,0,0,5.249,0,7.072,7.072,0,0,0,.013-7.147,3.2,3.2,0,0,0-2.624-1.187,3.26,3.26,0,0,0-2.624,1.173A5.452,5.452,0,0,0,4812.6,3380.811Z" fill="#fff"/>
    <path id="Path_126" data-name="Path 126" d="M4830.773,3382.9v5.829a7.347,7.347,0,0,1-.924.158,9.928,9.928,0,0,1-1.239.079,5.524,5.524,0,0,1-1.068-.092,1.891,1.891,0,0,1-.778-.33,1.416,1.416,0,0,1-.475-.659,3.2,3.2,0,0,1-.158-1.108v-13.926c.193-.035.5-.084.923-.145a8.336,8.336,0,0,1,1.213-.092,5.462,5.462,0,0,1,1.068.092,1.89,1.89,0,0,1,.778.329,1.432,1.432,0,0,1,.475.66,3.207,3.207,0,0,1,.158,1.108v4.193l5.486-6.3a3.924,3.924,0,0,1,2.572.672,2.052,2.052,0,0,1,.778,1.6,2.58,2.58,0,0,1-.343,1.292,6.729,6.729,0,0,1-1.108,1.372l-3.3,3.3q.658.738,1.384,1.53t1.425,1.542q.7.753,1.345,1.438l1.12,1.187a2.4,2.4,0,0,1-.21,1.029,2.373,2.373,0,0,1-.567.765,2.415,2.415,0,0,1-.805.474,2.841,2.841,0,0,1-.949.159,2.773,2.773,0,0,1-1.768-.541,9.4,9.4,0,0,1-1.318-1.279Z" fill="#fff"/>
    <path id="Path_127" data-name="Path 127" d="M4845.912,3388.724a7.379,7.379,0,0,1-.91.158,9.644,9.644,0,0,1-1.227.079,5.539,5.539,0,0,1-1.068-.092,1.891,1.891,0,0,1-.778-.33,1.419,1.419,0,0,1-.475-.659,3.228,3.228,0,0,1-.158-1.108v-13.926c.194-.035.5-.084.923-.145a8.349,8.349,0,0,1,1.214-.092,5.462,5.462,0,0,1,1.068.092,1.9,1.9,0,0,1,.778.329,1.424,1.424,0,0,1,.474.66,3.2,3.2,0,0,1,.159,1.108Z" fill="#fff"/>
    <path id="Path_128" data-name="Path 128" d="M4848.286,3375.3a2.275,2.275,0,0,1,2.452-2.453h8.705a3.22,3.22,0,0,1,.329.765,3.394,3.394,0,0,1,.145,1,1.93,1.93,0,0,1-.435,1.424,1.576,1.576,0,0,1-1.148.422h-5.565v2.453h5.935a3.22,3.22,0,0,1,.329.752,3.281,3.281,0,0,1,.146.989,1.963,1.963,0,0,1-.423,1.424,1.527,1.527,0,0,1-1.133.422h-4.854v2.77h6.779a3.177,3.177,0,0,1,.33.765,3.424,3.424,0,0,1,.144,1,1.979,1.979,0,0,1-.435,1.438,1.555,1.555,0,0,1-1.147.435h-7.7a2.276,2.276,0,0,1-2.452-2.453Z" fill="#fff"/>
    <g id="Group_273" data-name="Group 273">
      <path id="Path_129" data-name="Path 129" d="M4798.058,3389.3a8.582,8.582,0,0,1-8.6-8.7.718.718,0,0,1,.178-.46.75.75,0,0,1,.37-.231,2.291,2.291,0,0,0,1.473-1.174.718.718,0,0,1,.892-.342,2.27,2.27,0,0,0,3.091-2.129l-.013-.128-.016-.12a.716.716,0,0,1,.688-.793,2.286,2.286,0,0,0,2.145-1.748,1.458,1.458,0,0,1,1.759-1.058,8.551,8.551,0,0,1-1.964,16.886Zm-7.16-8.186a7.047,7.047,0,0,0,2.032,4.607,7.145,7.145,0,1,0,6.767-11.91l-.048.009a128.265,128.265,0,0,1-6.475,6.16,3.6,3.6,0,0,1-.741-.079A3.737,3.737,0,0,1,4790.9,3381.118Z" fill="#fff"/>
      <circle id="Ellipse_7527" data-name="Ellipse 7527" cx="1.075" cy="1.075" r="1.075" transform="translate(4798.774 3377.116)" fill="#fff"/>
      <circle id="Ellipse_7528" data-name="Ellipse 7528" cx="1.075" cy="1.075" r="1.075" transform="translate(4793.756 3381.418)" fill="#fff"/>
      <circle id="Ellipse_7529" data-name="Ellipse 7529" cx="1.075" cy="1.075" r="1.075" transform="translate(4799.491 3382.852)" fill="#fff"/>
      <circle id="Ellipse_7530" data-name="Ellipse 7530" cx="0.717" cy="0.717" r="0.717" transform="translate(4797.341 3379.984)" fill="#fff"/>
      <circle id="Ellipse_7531" data-name="Ellipse 7531" cx="0.717" cy="0.717" r="0.717" transform="translate(4795.907 3384.286)" fill="#fff"/>
      <circle id="Ellipse_7532" data-name="Ellipse 7532" cx="0.717" cy="0.717" r="0.717" transform="translate(4795.19 3372.098)" fill="#fff"/>
      <circle id="Ellipse_7533" data-name="Ellipse 7533" cx="1.075" cy="1.075" r="1.075" transform="translate(4791.605 3374.966)" fill="#fff"/>
      <circle id="Ellipse_7534" data-name="Ellipse 7534" cx="0.717" cy="0.717" r="0.717" transform="translate(4801.642 3379.984)" fill="#fff"/>
    </g>
  </g>
</svg>
